<?xml version="1.0" standalone="no"?>
<!DOCTYPE svg PUBLIC "-//W3C//DTD SVG 20010904//EN"
 "http://www.w3.org/TR/2001/REC-SVG-20010904/DTD/svg10.dtd">
<svg version="1.0" xmlns="http://www.w3.org/2000/svg"
 width="3000.000000pt" height="3000.000000pt" viewBox="0 0 3000.000000 3000.000000"
 preserveAspectRatio="xMidYMid meet">
<metadata>
Created by potrace 1.14, written by Peter Selinger 2001-2017
</metadata>
<g transform="translate(0.000000,3000.000000) scale(0.100000,-0.100000)"
fill="#000000" stroke="none">
<path d="M13258 29345 c-2 -2 -60 -7 -128 -10 -69 -3 -143 -8 -165 -10 -62 -5
-176 -16 -215 -20 -19 -2 -60 -7 -90 -10 -199 -22 -542 -84 -755 -136 -66 -16
-131 -32 -145 -35 -133 -28 -836 -252 -907 -289 -15 -8 -34 -15 -41 -15 -7 0
-20 -4 -30 -9 -9 -6 -48 -22 -87 -37 -68 -25 -240 -96 -280 -114 -11 -5 -81
-36 -155 -69 -178 -78 -296 -133 -525 -248 -164 -82 -244 -124 -437 -228 -21
-11 -65 -35 -99 -54 -105 -56 -466 -269 -612 -360 -75 -47 -152 -95 -170 -105
-50 -31 -554 -367 -627 -418 -36 -26 -92 -66 -125 -89 -129 -91 -489 -359
-635 -473 -103 -80 -229 -181 -285 -228 -11 -9 -54 -44 -95 -78 -41 -34 -86
-71 -100 -83 -175 -150 -234 -201 -394 -344 -45 -40 -84 -73 -87 -73 -4 0 -19
24 -34 53 -86 166 -242 347 -358 416 -125 74 -228 94 -358 71 -30 -5 -67 -12
-84 -15 -77 -13 -96 -18 -193 -51 -235 -78 -392 -185 -463 -316 -18 -35 -34
-65 -34 -68 0 -3 -6 -15 -13 -27 -12 -22 -108 -305 -116 -345 -3 -13 -10 -39
-15 -58 -19 -70 -70 -278 -76 -309 -3 -17 -12 -59 -20 -93 -8 -35 -16 -76 -19
-92 -3 -16 -10 -52 -15 -80 -6 -28 -13 -62 -15 -76 -3 -14 -9 -50 -15 -80 -6
-30 -13 -71 -16 -90 -3 -19 -8 -42 -10 -50 -2 -8 -6 -33 -10 -55 -3 -22 -8
-53 -10 -70 -3 -16 -7 -43 -10 -60 -2 -16 -7 -41 -9 -55 -3 -14 -8 -43 -11
-65 -3 -22 -10 -67 -15 -100 -5 -33 -12 -84 -15 -114 -4 -30 -8 -61 -10 -70
-3 -15 -15 -116 -20 -166 -2 -19 -12 -109 -20 -170 -2 -16 -7 -66 -10 -110 -4
-44 -8 -99 -10 -123 -3 -31 -18 -64 -54 -117 -98 -146 -119 -269 -71 -416 16
-46 48 -127 73 -179 38 -79 46 -109 52 -175 8 -95 11 -124 18 -190 4 -27 9
-84 12 -125 4 -41 8 -86 10 -100 2 -14 6 -70 10 -125 14 -261 33 -344 104
-454 41 -64 89 -157 132 -256 21 -47 59 -170 59 -189 0 -12 -9 -50 -20 -86
-11 -36 -23 -85 -26 -110 -3 -25 -7 -46 -9 -48 -1 -1 4 -32 11 -67 16 -78 60
-166 109 -220 57 -63 59 -67 143 -320 131 -395 147 -454 167 -629 11 -92 13
-113 19 -256 4 -74 9 -170 11 -212 6 -124 38 -179 191 -334 40 -41 77 -89 83
-106 5 -18 24 -80 41 -138 18 -58 45 -148 61 -200 16 -52 34 -108 39 -125 5
-16 63 -212 130 -435 134 -451 168 -561 181 -604 5 -16 9 -30 9 -31 0 -1 -16
-19 -36 -41 -82 -91 -202 -247 -279 -364 -526 -803 -590 -912 -609 -1046 -9
-60 -10 -172 -2 -244 11 -96 68 -331 96 -395 11 -26 22 -60 19 -60 -1 0 13
-22 30 -50 74 -117 174 -193 334 -253 65 -24 100 -43 119 -66 39 -45 67 -147
73 -267 3 -57 8 -140 11 -184 10 -144 11 -818 2 -910 -8 -84 -14 -101 -82
-240 -88 -178 -142 -319 -151 -395 -14 -104 -15 -115 -22 -210 -15 -190 -7
-931 12 -1075 2 -16 7 -73 10 -125 3 -52 8 -102 10 -110 2 -8 6 -51 10 -96 3
-44 7 -89 9 -100 2 -10 7 -46 10 -79 3 -33 9 -78 12 -100 3 -22 7 -51 9 -65 2
-14 6 -44 10 -68 4 -23 8 -52 10 -65 3 -23 21 -138 31 -197 46 -284 145 -693
193 -805 5 -11 33 -80 62 -154 94 -241 306 -646 459 -877 26 -40 49 -76 51
-80 8 -19 105 -159 112 -162 4 -2 7 -10 7 -17 0 -7 4 -15 8 -17 5 -1 30 -34
57 -73 86 -125 364 -487 395 -515 3 -3 27 -32 55 -65 27 -33 52 -62 55 -65 3
-3 34 -39 70 -80 148 -171 451 -479 614 -625 l88 -80 -5 -325 c-3 -179 -8
-352 -11 -385 -3 -33 -8 -96 -11 -140 -3 -44 -8 -93 -10 -110 -3 -16 -7 -59
-10 -95 -3 -36 -7 -74 -9 -85 -2 -11 -7 -51 -11 -88 -3 -37 -8 -76 -10 -85 -1
-9 -6 -39 -9 -67 -12 -84 -17 -119 -21 -145 -3 -14 -7 -41 -10 -60 -33 -213
-140 -698 -174 -790 -5 -14 -28 -90 -51 -170 -46 -158 -86 -284 -100 -315 -27
-56 -109 -290 -128 -360 -56 -218 -51 -328 25 -481 64 -130 157 -250 307 -399
118 -118 278 -250 368 -305 56 -34 232 -120 258 -126 14 -3 57 -8 95 -9 248
-12 470 218 664 689 78 188 225 680 256 857 3 16 12 57 20 91 15 69 20 89 35
163 13 61 18 88 25 140 4 22 8 48 11 57 6 21 12 52 19 98 3 20 7 47 10 60 3
13 7 40 10 60 3 20 7 45 9 55 2 11 7 45 12 75 4 30 8 57 9 60 1 3 5 30 9 60 5
30 10 64 12 75 2 11 11 74 19 140 9 66 18 130 20 142 2 12 6 55 9 95 4 40 9
102 12 138 3 36 7 245 8 466 1 220 6 406 10 412 4 7 12 12 17 12 5 0 28 12 52
27 177 115 316 274 435 503 93 179 177 408 228 620 2 8 10 42 18 76 8 33 26
123 40 200 26 142 30 171 41 259 4 28 8 57 10 65 2 8 7 51 10 95 4 44 8 96 10
115 12 119 23 318 25 430 0 50 4 59 41 100 55 62 97 122 120 175 18 40 60 198
73 270 28 169 37 196 116 365 97 207 119 254 177 380 25 52 60 129 80 170 19
41 38 82 43 91 4 8 42 91 84 185 43 93 89 195 104 227 l28 59 14 -29 c23 -45
177 -324 233 -423 11 -19 25 -44 31 -55 6 -11 48 -81 94 -155 46 -74 88 -144
95 -155 7 -11 15 -22 18 -25 3 -3 21 -27 41 -53 27 -36 42 -70 57 -135 19 -83
31 -140 36 -172 1 -8 7 -40 13 -70 6 -30 14 -71 17 -90 3 -19 10 -60 15 -90 5
-30 12 -71 15 -90 3 -19 10 -57 15 -85 5 -27 12 -66 14 -85 3 -19 8 -46 10
-60 3 -14 7 -43 11 -65 3 -22 7 -47 10 -55 2 -8 6 -37 10 -64 3 -27 12 -85 20
-130 13 -76 17 -103 31 -194 4 -31 46 -283 59 -363 3 -14 7 -41 9 -60 5 -33
15 -96 21 -128 1 -9 6 -36 10 -61 4 -25 9 -54 11 -65 3 -11 7 -38 10 -60 2
-22 7 -53 10 -70 13 -76 76 -443 79 -465 4 -23 32 -179 55 -307 6 -29 14 -77
20 -105 5 -29 16 -91 25 -138 9 -47 18 -94 19 -105 2 -11 16 -78 31 -150 15
-71 29 -143 32 -160 2 -16 10 -57 18 -90 7 -33 21 -94 30 -135 145 -658 288
-1085 439 -1312 35 -54 150 -170 280 -283 38 -33 74 -65 80 -70 6 -6 70 -59
141 -119 72 -59 140 -116 152 -126 40 -34 407 -326 533 -424 69 -53 132 -103
140 -109 8 -7 87 -66 175 -132 88 -66 162 -122 165 -125 3 -3 30 -24 60 -45
30 -22 62 -45 70 -52 77 -63 519 -376 710 -504 252 -168 307 -196 503 -261
329 -108 1092 -318 1155 -318 61 0 117 78 98 137 -3 10 -57 92 -120 183 -166
240 -230 330 -241 343 -6 7 -57 75 -115 152 -57 77 -112 149 -121 160 -81 98
-152 180 -200 232 -57 62 -125 153 -114 153 3 0 94 -43 203 -96 726 -355 1281
-621 1531 -736 36 -16 94 -43 128 -59 34 -16 67 -29 73 -29 5 0 10 -4 10 -10
0 -5 6 -10 14 -10 8 0 27 -7 43 -15 15 -8 53 -25 83 -38 30 -14 77 -34 104
-46 27 -12 72 -31 100 -42 28 -11 60 -24 71 -29 11 -5 45 -17 75 -28 30 -11
138 -53 240 -93 102 -40 187 -74 190 -75 3 0 12 -4 20 -7 26 -12 335 -129 345
-131 6 -2 21 -8 35 -13 81 -34 622 -210 745 -243 17 -5 73 -20 125 -35 52 -15
103 -28 113 -31 9 -2 25 -6 35 -8 183 -45 364 -86 407 -91 11 -2 47 -8 80 -15
97 -18 179 -31 290 -45 28 -4 64 -8 80 -10 59 -8 234 -22 370 -31 124 -8 156
-10 275 -18 52 -4 127 -9 165 -11 39 -3 95 -7 125 -10 30 -3 91 -7 135 -10 44
-3 105 -7 135 -10 30 -2 93 -7 140 -10 47 -4 105 -8 130 -10 25 -2 79 -6 120
-9 84 -7 137 -11 290 -26 58 -5 141 -12 185 -16 44 -3 87 -8 95 -9 8 -2 53 -6
100 -10 47 -4 93 -9 102 -10 9 -2 44 -6 77 -10 33 -3 68 -8 79 -10 11 -2 42
-6 69 -10 26 -4 75 -16 108 -27 98 -34 481 -191 639 -263 272 -123 540 -235
561 -235 49 0 91 35 107 88 8 26 -4 64 -54 172 -19 41 -48 104 -63 140 -79
180 -201 403 -307 564 -65 97 -187 224 -270 279 -29 19 -122 70 -207 112 -135
68 -375 217 -437 272 -12 10 -159 122 -327 248 -168 127 -302 233 -299 237 4
3 36 24 72 46 77 46 112 91 105 135 -10 52 -15 58 -239 258 -27 24 -61 55 -76
69 -14 14 -73 68 -130 120 -283 261 -427 403 -470 465 -36 52 -81 137 -76 142
2 3 99 -34 151 -57 11 -5 65 -27 120 -50 126 -52 263 -113 485 -217 121 -57
560 -276 665 -333 44 -23 137 -74 207 -111 130 -71 160 -79 207 -55 50 26 57
58 56 243 -2 155 -12 340 -20 354 -2 3 -6 27 -10 53 -7 66 -31 181 -61 301
-14 55 -27 107 -29 115 -2 8 -29 94 -60 190 -31 96 -59 184 -62 194 -13 39
150 -102 276 -240 101 -110 118 -129 182 -204 35 -41 72 -84 81 -95 18 -20
286 -357 369 -462 99 -126 422 -556 524 -698 148 -206 158 -215 215 -215 59 0
86 26 135 135 20 44 45 98 55 120 38 83 72 183 100 295 30 120 32 129 49 220
19 104 22 126 36 255 4 39 9 79 11 89 5 29 17 300 17 401 0 88 -10 330 -18
410 -12 136 -16 184 -21 215 -2 19 -7 51 -9 70 -3 19 -7 53 -10 75 -6 40 -11
71 -19 111 -2 12 -7 45 -11 75 -4 30 -9 57 -11 60 -2 4 -6 24 -10 45 -3 22
-14 77 -24 124 -10 47 -21 96 -24 110 -65 301 -217 777 -379 1186 -49 123
-188 451 -235 554 -9 19 -16 37 -17 40 -1 3 -20 45 -43 94 -23 49 -42 91 -42
93 0 19 -365 738 -476 934 -31 57 -66 120 -77 139 -108 196 -331 561 -485 793
-86 129 -218 322 -234 342 -5 6 -26 35 -48 65 -56 79 -104 144 -110 150 -3 3
-48 61 -100 130 -52 69 -99 130 -105 136 -5 6 -23 29 -40 50 -16 21 -43 54
-60 73 -16 20 -40 47 -51 61 -140 167 -323 367 -504 551 -264 268 -506 526
-631 674 -19 22 -41 47 -50 55 -12 12 -161 189 -401 478 -11 13 -52 65 -91
115 -40 51 -74 94 -77 97 -4 3 -81 106 -174 230 -92 124 -172 232 -179 240 -7
9 -25 36 -42 60 -16 25 -32 47 -35 50 -13 13 -287 420 -366 545 -307 482 -508
873 -599 1163 -24 78 -70 246 -79 292 -3 14 -19 92 -36 174 -17 82 -39 203
-50 270 -10 66 -21 137 -24 156 -26 159 -24 158 77 -40 116 -230 148 -280 229
-361 224 -222 433 -363 657 -443 219 -79 430 -77 628 6 178 74 420 275 578
483 132 173 276 437 361 661 21 54 38 100 40 102 1 2 84 5 185 7 183 5 303 10
409 20 30 3 82 8 115 11 75 6 152 14 185 19 14 2 50 6 80 10 30 3 66 8 80 10
14 3 39 7 55 9 17 3 61 10 99 16 38 6 114 20 170 31 131 26 136 27 171 36 17
4 32 7 35 8 162 37 368 102 475 151 55 25 125 73 153 103 43 46 87 163 132
346 9 39 12 41 92 70 95 35 186 90 215 131 21 29 67 153 77 209 39 207 41 403
6 497 -25 67 -94 139 -165 173 l-51 24 2 153 c1 84 5 344 8 578 6 396 10 607
21 1325 2 154 7 465 10 690 3 226 8 514 10 640 2 127 5 321 6 433 2 185 4 204
21 213 10 5 18 8 18 5 0 -9 111 33 149 56 43 27 61 43 89 84 28 40 67 163 77
239 4 33 9 71 11 85 3 14 5 69 5 122 2 306 -64 484 -212 575 -58 36 -207 81
-276 83 -7 0 -13 5 -13 11 0 19 -50 141 -112 277 -40 85 -138 244 -203 327
-143 183 -306 295 -521 359 l-61 18 33 50 c84 125 85 217 3 527 -26 101 -29
125 -25 215 15 297 18 427 19 643 0 412 -21 547 -106 673 -28 41 -156 174
-203 210 -92 71 -193 123 -271 140 -28 7 -123 9 -236 6 l-190 -5 -71 71 c-88
87 -137 121 -223 156 -67 26 -71 27 -278 24 -115 -1 -237 -3 -270 -4 -87 -3
-113 6 -154 54 -146 172 -293 249 -471 248 -105 0 -218 -11 -305 -29 -27 -6
-61 -13 -75 -15 -44 -7 -177 -54 -233 -81 -82 -40 -145 -93 -201 -167 -84
-110 -255 -394 -357 -593 -24 -45 -48 -73 -100 -114 -290 -227 -494 -508 -524
-720 -21 -151 4 -340 74 -561 22 -69 27 -154 12 -192 -6 -13 -51 -151 -101
-308 -50 -157 -113 -352 -140 -435 -27 -82 -94 -292 -150 -465 -56 -173 -122
-378 -147 -455 l-45 -140 -127 -125 c-97 -97 -134 -141 -158 -190 -30 -59 -73
-203 -87 -290 -3 -19 -8 -46 -11 -60 -3 -14 -8 -41 -10 -60 -3 -19 -7 -48 -10
-65 -2 -16 -7 -52 -10 -80 -4 -27 -8 -61 -11 -75 -2 -14 -7 -57 -10 -97 -3
-39 -7 -80 -9 -90 -2 -10 -4 -32 -4 -49 -1 -26 -10 -36 -61 -70 -33 -21 -60
-42 -60 -45 0 -3 -8 -14 -18 -25 -24 -26 -57 -83 -66 -114 -6 -24 -11 -77 -20
-250 -4 -72 -7 -80 -85 -219 -45 -79 -81 -145 -81 -147 0 -1 -22 -41 -50 -89
-27 -48 -50 -88 -50 -90 0 -2 -35 -66 -79 -143 -43 -77 -81 -147 -84 -155 -4
-10 -30 -17 -84 -22 -43 -4 -91 -9 -108 -11 -16 -2 -48 -5 -71 -8 -141 -15
-171 -19 -187 -28 -10 -5 -20 -8 -22 -6 -5 5 -132 289 -177 398 -22 52 -48
113 -58 135 -49 110 -90 223 -95 264 -6 46 -8 61 -25 161 -16 93 -18 104 -24
130 -3 14 -8 36 -10 50 -12 77 -44 179 -83 270 -22 52 -177 360 -202 400 -11
19 -24 42 -28 50 -4 8 -38 66 -75 129 -37 62 -68 118 -68 122 0 5 -4 9 -10 9
-5 0 -10 5 -10 10 0 20 -348 561 -463 720 -26 36 -53 74 -61 85 -41 58 -230
309 -250 333 -94 108 -126 144 -177 197 -31 33 -90 98 -129 145 -40 47 -82 96
-94 110 -12 14 -35 43 -51 65 -17 22 -33 42 -36 45 -6 5 -213 277 -252 331 -9
13 -50 69 -90 124 -130 179 -254 358 -317 459 -212 342 -455 558 -700 621 -79
21 -91 23 -190 40 -126 22 -367 21 -505 -2 -22 -4 -44 -7 -50 -8 -44 -5 -186
-32 -255 -49 -136 -34 -145 -36 -374 -111 -180 -59 -335 -131 -564 -262 -53
-31 -106 -61 -117 -67 -39 -22 -260 -160 -265 -165 -3 -4 -50 -35 -104 -71
-248 -162 -744 -538 -902 -685 -6 -5 -45 -39 -85 -75 -106 -93 -404 -390 -469
-467 -161 -192 -249 -332 -303 -479 -16 -43 -77 -247 -83 -277 -2 -10 -6 -27
-9 -37 -3 -10 -7 -27 -9 -37 -3 -10 -11 -48 -20 -84 -8 -37 -17 -78 -20 -90
-2 -13 -16 -82 -31 -154 -15 -71 -29 -139 -30 -150 -2 -11 -5 -31 -8 -45 -3
-14 -8 -43 -12 -65 -3 -22 -13 -74 -20 -115 -8 -41 -16 -91 -19 -110 -3 -19
-7 -44 -10 -55 -2 -11 -7 -42 -11 -70 -11 -76 -13 -88 -19 -120 -2 -16 -7 -48
-11 -70 -3 -23 -7 -50 -9 -60 -3 -19 -11 -73 -22 -155 -14 -104 -27 -146 -59
-201 -52 -89 -140 -288 -172 -389 -42 -134 -54 -334 -27 -449 12 -52 11 -60
-13 -126 -82 -224 -208 -613 -248 -765 -3 -8 -25 -91 -50 -185 -25 -93 -61
-240 -81 -325 -20 -85 -37 -162 -39 -170 -15 -63 -76 -373 -80 -404 -3 -21 -7
-41 -9 -45 -2 -3 -7 -31 -11 -61 -4 -30 -8 -64 -10 -75 -2 -11 -6 -38 -10 -60
-3 -22 -8 -51 -10 -65 -3 -14 -7 -43 -10 -65 -3 -22 -8 -51 -10 -65 -3 -14 -7
-50 -10 -80 -3 -30 -7 -71 -10 -90 -25 -175 -37 -578 -21 -705 31 -254 135
-537 317 -865 84 -150 71 -129 195 -320 101 -156 188 -279 298 -422 l60 -77 2
-79 c3 -76 2 -79 -24 -94 -94 -56 -318 -267 -400 -377 -86 -116 -177 -310
-208 -446 -8 -36 -33 -179 -36 -210 -2 -16 -5 -32 -8 -35 -3 -3 -68 -83 -145
-179 -76 -95 -143 -174 -149 -176 -74 -21 -129 -40 -164 -57 l-44 -21 -36 35
c-20 20 -49 46 -64 58 l-27 22 23 37 c98 159 113 487 32 735 -31 94 -87 207
-131 264 -25 33 -38 65 -54 140 -30 134 -66 273 -95 362 l-23 75 21 15 c158
110 277 266 335 437 27 79 33 114 35 203 5 139 -29 254 -111 377 -35 52 -193
225 -305 331 -28 27 -54 63 -65 91 -26 71 -90 188 -146 270 -136 197 -347 338
-578 387 -87 18 -125 24 -195 29 -43 4 -82 10 -85 13 -3 4 -11 25 -17 47 -10
38 -71 246 -112 380 -10 33 -26 85 -35 115 -22 74 -99 321 -140 450 -18 58
-52 166 -75 240 -62 195 -348 1059 -410 1235 -51 144 -57 180 -44 235 13 58
14 305 0 356 -26 98 -72 166 -162 241 -55 45 -100 123 -109 188 -4 22 -8 50
-10 63 -3 17 -1 21 8 14 16 -12 193 -144 277 -206 36 -26 78 -57 93 -69 61
-47 152 -97 204 -112 60 -18 190 -31 268 -29 28 1 107 2 177 3 121 1 128 2
157 27 22 19 36 44 51 97 47 161 198 599 235 682 8 17 30 72 50 123 38 99 134
325 183 432 16 36 41 90 55 121 90 200 349 700 398 771 11 14 19 28 19 31 0
23 197 294 324 447 222 266 582 616 951 923 146 121 149 124 205 167 25 19 47
37 50 40 8 9 282 216 405 305 142 104 372 260 410 280 56 29 82 90 63 147 -6
15 -49 59 -104 103 -52 43 -118 104 -147 136 -63 69 -117 169 -117 214 0 44
61 220 113 325 69 140 179 235 352 305 41 17 200 62 245 71 14 2 36 7 50 10
224 52 394 23 469 -81 44 -62 58 -99 65 -180 6 -65 14 -139 21 -193 3 -27 30
-59 67 -78 34 -17 30 -18 74 1 29 12 105 67 181 130 127 105 537 368 798 510
870 475 1712 805 2760 1081 148 39 237 61 270 68 11 3 79 19 150 36 72 18 141
34 155 36 14 3 32 7 40 10 16 5 404 89 485 105 66 12 77 14 165 32 41 9 86 18
100 20 70 13 148 28 170 32 14 3 90 16 170 30 80 14 156 27 170 30 13 2 42 7
65 10 22 3 65 10 95 15 99 17 128 21 243 35 23 3 53 8 67 10 14 2 45 7 70 10
161 20 191 28 221 57 23 24 29 38 29 73 0 56 -22 81 -115 130 -38 21 -108 59
-155 85 -47 26 -121 66 -165 90 -44 24 -168 91 -275 150 -107 59 -224 123
-260 142 -36 20 -86 47 -111 61 -41 23 -119 41 -264 62 -23 3 -52 8 -65 11
-14 2 -38 6 -55 8 -29 4 -114 16 -145 21 -8 2 -40 6 -70 10 -30 4 -63 9 -74
11 -10 2 -44 6 -75 9 -31 4 -63 8 -71 10 -8 2 -40 6 -70 10 -30 3 -84 10 -120
15 -36 5 -110 14 -165 20 -55 6 -116 13 -135 15 -19 2 -57 7 -85 10 -27 2 -68
7 -90 9 -22 3 -71 8 -110 11 -38 3 -90 8 -115 10 -25 3 -70 7 -100 9 -30 3
-80 8 -110 10 -101 9 -204 17 -275 21 -38 2 -124 6 -190 10 -66 3 -147 9 -180
11 -72 7 -1121 15 -1127 9z"/>
</g>
</svg>
